<?xml version="1.0" encoding="utf-8"?>
<!-- Generator: Adobe Illustrator 25.3.1, SVG Export Plug-In . SVG Version: 6.00 Build 0)  -->
<svg version="1.1" id="Layer_1" xmlns="http://www.w3.org/2000/svg" xmlns:xlink="http://www.w3.org/1999/xlink" x="0px" y="0px"
	 width="365.3px" height="250.5px" viewBox="0 0 365.3 250.5" style="enable-background:new 0 0 365.3 250.5;" xml:space="preserve"
	>
<style type="text/css">
	.st0{fill:#3B3B3B;}
	.st1{fill-rule:evenodd;clip-rule:evenodd;fill:#E30016;}
	.st2{fill-rule:evenodd;clip-rule:evenodd;fill:#3B3B3B;}
	.st3{fill:#E30016;}
</style>
<g id="_x33_">
	<rect x="237.4" y="237.3" class="st0" width="127.8" height="4.1"/>
	<path class="st0" d="M157.1,229.2c0-0.5-0.1-1-0.3-1.4c-0.2-0.4-0.6-0.7-1.1-0.7c-0.5,0-1,0.2-1.5,0.5c-0.4,0.3-0.7,0.7-0.7,1.2
		c0,3.7,0.1,6.5,0.2,8.4h-1.6c-0.1,0-0.7,0-1.9,0.1s-2.8-0.1-4.8-0.5l0.1-8c0-0.7-0.4-1.1-1.3-1.1c-0.5,0-1,0.2-1.4,0.5
		c-0.4,0.3-0.6,0.6-0.7,1l-0.2,8.5l-0.1,2.5c0,2.6,0.2,5.6,0.6,9.1c0,0.3,0.2,0.6,0.5,0.9c0.3,0.2,0.6,0.4,1,0.4
		c0.5,0,0.9-0.1,1.3-0.4s0.6-0.7,0.6-1.2c-0.3-4.7-0.4-7.3-0.4-7.7v-1.1c2.6,0.3,4.7,0.4,6.1,0.4c0.7,0,1.5,0,2.1-0.1
		c0,4.1-0.1,7-0.2,8.6c0,1,0.5,1.5,1.7,1.5c1.2,0,1.8-0.9,1.8-2.8l0.1-7.5V229.2z M171.5,227.3c-3.2,0-5.7,0.9-7.6,2.7
		c-1.8,1.8-2.7,4.4-2.7,7.9c0,3.5,0.9,6.5,2.7,8.9c1.8,2.4,4.1,3.7,7,3.7c2.6,0,4.8-1.2,6.4-3.7c1.7-2.5,2.5-5.4,2.5-8.7
		c0-3.3-0.8-5.9-2.3-7.9C176,228.3,174,227.3,171.5,227.3z M171.2,246.8c-2,0-3.6-0.9-4.8-2.8c-1.2-1.9-1.7-3.9-1.7-6.1
		c0-2.2,0.5-3.9,1.6-5.1c1.1-1.2,2.6-1.8,4.6-1.8c1.9,0,3.3,0.6,4.1,1.9c0.8,1.2,1.2,3.2,1.2,6c0,2.7-0.7,4.9-2,6.6
		C173.3,246.3,172.3,246.8,171.2,246.8z M203.2,225.9c-0.5,0-0.9,0.2-1.4,0.5c-0.4,0.3-0.7,0.6-0.8,0.9c-0.1,0.1-0.3,0.6-0.6,1.5
		l-0.4,1.3c-1.3,3.7-3.7,5.5-7.1,5.5c-1.2,0-2.3-0.7-3.2-2c-0.9-1.4-1.4-2.9-1.5-4.6c0-0.4-0.2-0.7-0.6-1c-0.4-0.2-0.8-0.4-1.4-0.4
		c-0.5,0-0.9,0.2-1.3,0.7c-0.4,0.4-0.6,0.9-0.6,1.4v10l-0.2,9.4c0,1,0.5,1.5,1.4,1.5c1.6,0,2.4-0.7,2.4-2.1c0.1-1.4,0.1-5,0.1-10.7
		c1,1,2.6,1.6,4.5,1.6c1.9,0,3.5-0.3,4.6-0.9c1.2-0.6,2.4-1.7,3.7-3.2c0,2.6,0,4.5,0.1,5.7c0.1,2.3,0.1,5,0.1,8
		c0,1.1,0.4,1.7,1.3,1.7c0.9,0,1.5-0.2,1.8-0.7c0.4-0.5,0.6-1,0.6-1.5c0-8-0.1-15-0.2-21.1C204.7,226.4,204.2,225.9,203.2,225.9z
		 M217.9,239.2c0.7,0,1.3,0,1.7,0c0.4,0,0.6-0.1,0.8-0.1c0.4-0.1,0.8-0.3,1.1-0.7s0.5-0.8,0.5-1.2c0-0.8-0.5-1.3-1.6-1.4
		c-4.3,0-6.9,0-7.8-0.1c0-0.2-0.1-1.9-0.1-5.1c1.3,0.1,2.5,0.2,3.8,0.2c3.4,0,5.5-0.2,6.3-0.7c0.4-0.3,0.6-0.7,0.6-1.4
		c0-0.8-0.5-1.4-1.6-1.5h-0.1l-8.9-0.2h-1.4c-1.5,0-2.3,0.7-2.3,1.9c0,2.2,0.1,4.6,0.2,7.2c-0.4,0.4-0.6,0.8-0.6,1.2
		c0,0.5,0.2,0.9,0.7,1.1v8.4c0,1.1,0.1,1.9,0.3,2.6c0.2,0.6,0.7,1,1.6,1l10-0.1c1.3,0,2-0.7,2-2.1c0-0.7-0.5-1.2-1.5-1.3l-8.8,0.2
		c0,0,0.1-0.5,0.1-1.4l-0.1-6.7L217.9,239.2z"/>
	<rect x="0.1" y="237.3" class="st0" width="127.8" height="4.1"/>
</g>
<g id="_x32_">
	<path class="st1" d="M56.7,161.3c0-6.4-2.9-9.3-9.3-9.3H9.4c-6.4,0-9.3,2.9-9.3,9.3v32.9c0,6.4,2.9,9.3,9.3,9.3H33l5-14.3H14.4
		v-23.6h28.6v57.3h14.3l5-14.3h-5L56.7,161.3L56.7,161.3z M80.3,152v37.9h28.6V152h14.3v43c0,6.4-2.9,9.3-9.3,9.3H76
		c-6.4,0-9.3-2.9-9.3-9.3v-43H80.3z M141.9,204.2c-6.4,0-9.3-2.9-9.3-9.3V162c0-6.4,2.9-9.3,9.3-9.3h37.9c6.4,0,9.3,2.9,9.3,9.3v43
		h-14.3v-38h-28.6v23.6h23.6l-5,14.3L141.9,204.2L141.9,204.2z"/>
	<path class="st2" d="M255.7,194.2v-61.6h-14.3v57.3h-28.6v-23.6h19.3l5-14.3h-28.6c-6.4,0-9.3,2.9-9.3,9.3v32.9
		c0,6.4,2.9,9.3,9.3,9.3h37.9C252.8,204.2,255.7,200.7,255.7,194.2L255.7,194.2z M265.7,204.2v-43c0-6.4,2.9-9.3,9.3-9.3h28.6
		l-5,14.3h-19.3v37.9L265.7,204.2L265.7,204.2z M365.2,161.3v32.9c0,6.4-2.9,9.3-9.3,9.3H318c-6.4,0-9.3-2.9-9.3-9.3v-32.9
		c0-6.4,2.9-9.3,9.3-9.3h37.9C361.6,152,365.2,154.8,365.2,161.3L365.2,161.3z M322.3,189.9h28.6v-23.6h-28.6V189.9z"/>
</g>
<g id="_x31_">
	<g>
		<path class="st0" d="M163.4,66.9c4.1,0,7.5,0,11.1,0c0,3.8,0,7.4,0,11.4c-3.6,0-7.2,0-11.1,0C163.4,74.4,163.4,70.7,163.4,66.9z"
			/>
		<path class="st3" d="M193.9,78.3c-4,0-7.3,0-11,0c0-3.5,0-7,0-10.9c3.8,0,7.2,0,11,0C193.9,70.8,193.9,74.3,193.9,78.3z"/>
		<path class="st3" d="M163.4,85.2c4.1,0,7.5,0,11.1,0c0,3.8,0,7.4,0,11.4c-3.6,0-7.2,0-11.1,0C163.4,92.7,163.4,89,163.4,85.2z"/>
		<path class="st0" d="M193.9,96.6c-4,0-7.3,0-11,0c0-3.5,0-7,0-10.9c3.8,0,7.2,0,11,0C193.9,89.1,193.9,92.6,193.9,96.6z"/>
	</g>
	<path class="st0" d="M292.8,113.5c15.7,0,55.7,0,72.5,0c0,2.4,0,4.3,0,6.5c-26.7,0-54.8,0-82.4,0c-34.4-34-68-68.7-103.6-103.9
		c-33.4,34.9-66.4,69.4-99.6,104.1c-26.2,0-52.7,0-79.5,0c0-2.2,0-4.2,0-6.7c16.4,0,53.9-0.1,70-0.1L178.6,0"/>
</g>
</svg>
